<?xml version="1.0" standalone="no"?>
<!DOCTYPE svg PUBLIC "-//W3C//DTD SVG 20010904//EN"
 "http://www.w3.org/TR/2001/REC-SVG-20010904/DTD/svg10.dtd">
<svg version="1.0" xmlns="http://www.w3.org/2000/svg"
 width="2228.000000pt" height="2228.000000pt" viewBox="0 0 2228.000000 2228.000000"
 preserveAspectRatio="xMidYMid meet">
<metadata>
Created by potrace 1.11, written by Peter Selinger 2001-2013
</metadata>
<g transform="translate(0.000000,2228.000000) scale(0.100000,-0.100000)"
fill="#000000" stroke="none">
<path d="M1930 13949 c-19 -5 -46 -11 -59 -13 -40 -8 -204 -94 -246 -128 -45
-37 -239 -230 -270 -268 -65 -81 -176 -264 -239 -394 -75 -153 -88 -183 -90
-201 -1 -5 -9 -27 -18 -48 -22 -48 -86 -245 -93 -285 -3 -17 -9 -42 -15 -56
-5 -15 -7 -26 -5 -26 2 0 0 -12 -5 -26 -6 -15 -12 -41 -15 -58 -4 -35 -15 -98
-21 -129 -16 -86 -23 -341 -11 -422 3 -22 9 -58 12 -80 20 -134 121 -339 226
-460 149 -172 282 -301 469 -455 30 -25 62 -52 71 -60 23 -21 310 -251 403
-323 81 -62 398 -330 447 -377 50 -49 113 -119 159 -176 30 -37 54 -99 55
-139 0 -59 -24 -100 -114 -193 l-80 -84 -888 5 c-1075 6 -1105 8 -1189 52
-102 54 -179 7 -257 -155 -23 -47 -42 -88 -43 -92 -1 -5 -2 -9 -4 -10 -1 -2
-3 -10 -5 -18 -2 -8 -26 -76 -52 -150 l-47 -135 -4 -320 -3 -321 25 -27 c14
-15 29 -27 35 -27 5 0 11 -6 13 -12 4 -10 349 -14 1671 -16 l1667 -2 135 69
c122 63 191 104 205 121 3 4 25 20 50 37 61 42 157 138 240 239 76 93 189 291
253 445 51 121 131 364 144 434 2 11 8 36 13 55 11 40 48 218 56 269 3 18 8
43 11 55 2 11 6 35 9 51 2 17 6 39 8 50 19 84 28 362 13 431 -32 149 -114 302
-230 427 -110 119 -196 202 -322 312 -38 33 -76 67 -85 76 -9 8 -25 22 -37 30
-11 8 -40 32 -65 54 -25 22 -62 54 -83 70 -21 17 -44 36 -51 42 -7 7 -52 45
-101 85 -48 39 -97 79 -108 89 -60 53 -76 67 -116 101 -24 20 -54 44 -66 55
-12 10 -30 25 -40 33 -41 35 -169 145 -179 155 -6 5 -38 34 -71 62 -143 125
-168 155 -191 229 -9 28 -8 125 1 164 12 50 20 70 28 70 5 0 9 6 9 14 0 23 73
86 112 97 20 5 86 12 145 14 59 3 110 5 113 6 3 1 8 1 11 1 16 -2 81 -2 162 0
48 2 87 -1 87 -5 0 -5 5 -5 11 -1 7 4 195 8 418 10 369 2 542 7 611 19 14 2
45 7 70 10 136 19 250 68 320 138 22 23 40 45 40 50 0 4 5 5 10 2 6 -3 10 -1
10 5 0 6 11 26 24 43 31 41 76 132 121 243 20 49 40 98 45 109 10 21 56 143
60 160 1 6 7 21 12 35 53 138 85 316 66 363 -7 16 -95 17 -1665 16 -912 -1
-1674 -5 -1693 -10z"/>
<path d="M5417 13953 c-3 -5 -6 -91 -7 -193 -2 -189 -3 -217 -14 -353 -4 -43
-9 -108 -11 -145 -2 -37 -7 -92 -10 -122 -3 -30 -8 -84 -10 -120 -2 -36 -5
-65 -5 -65 -2 0 -6 -47 -15 -155 -3 -47 -8 -101 -10 -120 -2 -19 -6 -66 -10
-105 -3 -38 -8 -86 -10 -105 -1 -19 -6 -71 -10 -115 -3 -44 -8 -96 -10 -115
-2 -19 -6 -62 -9 -95 -3 -33 -7 -80 -10 -105 -3 -25 -8 -79 -11 -120 -4 -41
-8 -86 -10 -100 -2 -14 -7 -57 -10 -96 -3 -40 -8 -87 -10 -105 -2 -19 -7 -63
-10 -99 -3 -36 -7 -81 -10 -100 -2 -19 -7 -68 -10 -108 -4 -41 -8 -82 -10 -93
-2 -10 -7 -54 -10 -97 -3 -42 -8 -90 -10 -107 -2 -16 -7 -61 -10 -100 -3 -38
-8 -83 -10 -100 -2 -16 -7 -59 -10 -95 -5 -62 -9 -108 -20 -210 -3 -25 -7 -70
-10 -100 -11 -125 -16 -167 -20 -200 -3 -19 -8 -62 -10 -95 -7 -86 -13 -152
-21 -215 -4 -30 -8 -73 -9 -95 -2 -22 -6 -67 -10 -100 -4 -33 -8 -81 -10 -106
-1 -25 -5 -67 -9 -95 -9 -71 -24 -230 -31 -329 -6 -77 -6 -327 -1 -355 3 -13
8 -42 11 -65 19 -130 76 -249 159 -330 114 -112 60 -105 774 -105 l618 0 30
33 c17 17 39 46 50 62 10 17 21 32 24 35 4 3 24 33 46 68 21 35 47 75 56 90 9
15 23 38 31 52 13 23 135 226 156 260 30 47 105 176 106 180 0 3 8 16 17 30 9
14 27 44 40 66 12 23 73 128 133 233 61 106 125 220 144 254 19 34 41 68 48
75 7 7 13 20 13 28 0 8 5 14 10 14 6 0 10 5 10 10 0 16 122 220 132 220 4 0 7
3 6 8 -4 12 86 161 95 155 4 -2 5 -8 2 -13 -3 -5 -8 -42 -10 -82 -8 -111 -24
-274 -30 -309 -2 -8 -6 -55 -10 -105 -4 -49 -9 -98 -11 -109 -2 -11 -6 -51
-10 -90 -3 -38 -7 -90 -10 -115 -27 -257 -20 -624 13 -710 3 -8 7 -20 9 -27 1
-7 16 -43 34 -80 39 -85 120 -163 211 -204 l64 -28 603 -1 c376 0 602 4 602
10 0 9 39 72 59 96 6 7 7 15 4 18 -4 3 -1 6 5 6 7 0 12 4 12 10 0 5 18 39 40
75 22 36 40 69 40 74 0 5 3 11 8 13 6 3 72 109 110 178 7 14 21 37 30 52 9 14
57 93 105 175 49 81 112 187 142 236 29 48 50 87 47 87 -4 0 -2 4 4 8 5 4 50
75 98 157 49 83 104 173 122 202 19 28 34 54 34 56 0 3 23 42 50 86 28 44 50
85 50 91 0 5 5 10 10 10 6 0 10 5 10 10 0 6 11 27 24 48 20 32 280 468 332
559 11 18 39 65 63 105 24 40 109 183 189 318 79 135 152 256 161 270 8 14 21
34 27 45 17 32 49 86 83 143 17 29 31 57 31 62 0 4 4 10 8 12 5 2 32 44 60 93
29 50 57 97 62 105 10 15 113 191 153 260 11 19 28 49 38 65 11 17 22 37 26
45 3 8 17 32 30 53 31 50 63 105 81 142 9 17 18 32 22 35 3 3 21 32 40 65 48
86 63 113 99 173 17 29 31 57 31 62 0 6 3 10 8 10 4 0 12 10 18 23 20 41 97
182 103 187 3 3 17 28 31 55 14 28 27 52 31 55 3 3 13 21 23 40 9 19 31 60 48
90 90 164 190 373 209 440 19 69 19 69 23 173 5 134 -4 154 -101 237 -15 13
-98 15 -590 18 l-572 2 -21 -39 c-11 -22 -20 -51 -20 -63 0 -22 -51 -129 -98
-208 -12 -19 -30 -53 -41 -75 -11 -22 -33 -62 -49 -90 -16 -27 -55 -95 -87
-150 -71 -122 -91 -157 -123 -215 -14 -25 -33 -57 -43 -72 -11 -14 -19 -29
-19 -33 0 -4 -13 -27 -30 -52 -16 -24 -30 -46 -30 -48 0 -4 -55 -99 -90 -155
-5 -8 -23 -40 -41 -70 -17 -30 -37 -58 -43 -62 -6 -4 -7 -8 -3 -8 5 0 -1 -12
-12 -26 -12 -15 -21 -33 -21 -40 0 -8 -3 -14 -8 -14 -4 0 -18 -21 -32 -47 -13
-27 -27 -50 -31 -53 -3 -3 -16 -25 -30 -50 -13 -25 -27 -47 -30 -50 -6 -5
-152 -249 -158 -264 -2 -6 -8 -15 -13 -21 -12 -14 -74 -114 -90 -145 -7 -14
-16 -29 -21 -35 -15 -19 -87 -134 -87 -139 0 -8 -63 -100 -73 -107 -5 -3 -7
-8 -5 -10 1 -3 -7 -18 -19 -34 l-23 -30 5 60 c5 58 9 96 20 200 3 28 8 68 10
90 3 36 11 113 20 190 1 17 6 59 10 95 3 36 8 76 10 90 6 39 19 182 20 213 0
15 2 27 5 27 3 0 5 12 6 28 0 29 13 166 19 217 5 38 16 147 20 205 2 25 6 79
10 120 13 140 14 155 21 240 15 197 19 348 10 390 -14 65 -45 128 -84 172 -24
26 -50 48 -58 48 -8 0 -14 5 -14 10 0 7 -189 10 -548 10 -519 0 -548 -1 -563
-18 -14 -17 -198 -304 -224 -349 -5 -10 -35 -58 -65 -108 -78 -127 -77 -127
-96 -162 -10 -18 -21 -33 -26 -33 -4 0 -8 -5 -8 -11 0 -7 -34 -65 -75 -131
-41 -65 -75 -121 -75 -123 0 -1 -18 -32 -40 -66 -21 -35 -62 -103 -90 -151
-28 -48 -56 -90 -61 -93 -5 -4 -7 -11 -4 -16 4 -5 1 -9 -4 -9 -6 0 -11 -7 -11
-15 0 -8 -4 -15 -10 -15 -5 0 -10 -4 -10 -10 0 -7 -73 -134 -140 -240 -61 -98
-110 -183 -110 -190 0 -5 -3 -10 -7 -12 -5 -1 -35 -48 -68 -103 -32 -55 -62
-102 -65 -105 -5 -5 -17 -26 -44 -75 -6 -11 -13 -22 -16 -25 -3 -3 -19 -27
-34 -54 -31 -52 -70 -114 -85 -132 -5 -6 -12 -20 -15 -32 -4 -12 -12 -22 -17
-22 -5 0 -9 -7 -9 -16 0 -8 -5 -12 -10 -9 -6 4 -8 10 -6 13 5 8 12 60 21 142
3 30 7 66 10 80 2 14 6 45 9 70 7 55 15 114 27 200 5 36 11 83 14 105 6 67 15
139 19 160 2 11 7 49 11 85 4 36 9 74 12 85 2 11 6 38 8 60 2 22 6 56 9 75 2
19 7 55 11 80 3 25 8 63 10 85 2 22 4 40 5 40 1 0 3 14 4 30 5 47 16 137 21
165 2 14 7 52 10 85 3 33 8 74 10 90 33 256 36 332 18 401 -18 72 -53 131
-124 208 l-61 66 -828 0 c-456 0 -831 -3 -833 -7z"/>
<path d="M12340 13928 c-8 -18 -15 -62 -16 -98 -2 -63 -59 -282 -101 -390 -3
-8 -7 -21 -9 -28 -7 -37 -308 -929 -317 -939 -5 -7 -7 -13 -4 -13 2 0 -18 -64
-45 -142 -27 -79 -53 -156 -58 -173 -12 -43 -166 -490 -172 -501 -3 -5 -9 -22
-13 -39 -10 -34 -10 -35 -18 -55 -3 -8 -15 -44 -27 -80 -12 -36 -26 -74 -31
-85 -4 -11 -24 -69 -44 -130 -19 -60 -37 -114 -39 -120 -2 -5 -5 -14 -6 -20
-4 -13 -59 -166 -67 -185 -3 -8 -7 -22 -9 -31 -2 -9 -8 -27 -13 -40 -5 -13
-10 -28 -11 -34 -1 -5 -6 -16 -12 -22 -6 -7 -8 -13 -4 -13 3 0 -1 -17 -10 -37
-8 -21 -17 -45 -19 -53 -5 -18 -142 -418 -152 -440 -3 -8 -7 -19 -9 -25 -4
-16 -181 -526 -199 -575 -9 -25 -18 -49 -19 -55 -1 -5 -20 -64 -41 -130 -22
-66 -40 -122 -40 -125 -1 -3 -4 -12 -8 -20 -3 -8 -16 -53 -30 -100 -13 -47
-33 -114 -43 -150 -28 -95 -25 -215 6 -295 6 -16 11 -31 10 -33 -3 -8 69 -145
103 -197 55 -84 152 -175 218 -208 l56 -27 676 0 677 0 1 58 c1 166 27 308 90
494 10 32 21 66 23 75 1 10 6 25 9 33 3 8 7 24 10 35 11 44 111 346 212 640
59 171 113 328 120 350 7 22 50 146 95 275 45 129 85 249 89 266 5 18 12 38
17 45 5 8 9 16 10 19 3 22 38 127 44 135 8 11 23 70 20 81 -1 4 2 10 7 13 7 5
141 384 147 416 1 6 5 16 9 22 5 7 10 21 12 30 2 10 40 122 84 248 140 403
232 668 253 725 10 30 21 62 23 70 3 8 28 80 56 160 64 182 160 462 164 475 1
6 5 17 8 25 37 93 132 446 142 525 22 172 -5 274 -98 372 l-50 53 -821 0 -821
0 -15 -32z"/>
<path d="M14669 13928 c-4 -91 -36 -247 -70 -335 -6 -15 -10 -29 -9 -31 2 -2
-27 -103 -38 -132 -3 -8 -7 -21 -9 -27 -1 -7 -5 -19 -6 -25 -2 -7 -7 -20 -10
-28 -14 -36 -68 -210 -68 -215 1 -3 -6 -19 -14 -35 -8 -16 -15 -33 -15 -37 -1
-17 -22 -89 -30 -98 -5 -5 -8 -12 -8 -15 0 -16 -16 -67 -25 -77 -5 -7 -7 -13
-3 -13 3 0 -5 -30 -19 -66 -14 -37 -27 -76 -30 -88 -3 -11 -25 -79 -50 -151
-25 -71 -48 -137 -50 -145 -2 -8 -15 -49 -30 -90 -14 -41 -39 -118 -56 -170
-17 -52 -36 -101 -41 -107 -6 -7 -8 -13 -5 -13 4 0 -1 -19 -9 -42 -9 -24 -17
-47 -18 -53 -2 -5 -6 -17 -9 -25 -3 -8 -13 -37 -22 -65 -8 -27 -20 -59 -24
-70 -5 -11 -43 -121 -85 -245 -41 -124 -102 -306 -136 -405 -34 -99 -63 -184
-65 -190 -1 -5 -5 -17 -8 -25 -14 -34 -317 -936 -321 -955 -1 -5 -34 -109 -73
-230 -67 -205 -85 -263 -88 -275 -1 -3 -4 -12 -7 -20 -45 -116 -139 -483 -140
-544 -3 -204 110 -430 265 -528 l52 -33 737 -3 737 -2 -5 22 c-10 47 -13 287
-4 320 5 18 11 44 14 58 5 22 20 83 30 115 1 6 15 51 31 100 16 50 29 92 30
95 2 9 46 145 52 160 3 8 7 20 8 25 2 6 16 46 32 90 17 44 30 82 31 85 1 7 11
38 19 58 3 9 7 19 7 22 3 11 59 167 71 195 7 17 22 59 35 95 12 36 25 72 28
80 3 8 6 20 8 25 2 9 37 97 55 140 5 11 20 51 34 89 36 97 52 125 72 124 10 0
32 2 48 6 17 4 129 9 250 11 121 3 220 5 220 5 0 0 104 2 230 5 127 2 250 6
275 9 25 3 74 7 110 11 104 9 151 15 215 26 33 6 69 12 80 14 30 5 146 35 175
44 14 5 34 13 45 17 11 4 24 6 29 5 5 -1 17 6 27 15 11 9 19 14 19 10 0 -15
202 98 282 157 86 64 287 258 348 337 19 24 43 52 53 62 9 10 17 22 17 26 0 5
9 17 20 27 11 10 20 22 20 27 0 5 8 18 18 29 11 10 25 32 33 47 8 15 17 29 20
32 3 3 14 20 23 38 28 55 33 31 7 -33 -7 -16 -14 -34 -15 -40 -2 -5 -6 -19
-10 -30 -16 -43 -19 -50 -22 -60 -1 -5 -24 -68 -49 -140 -26 -71 -49 -139 -52
-150 -3 -11 -11 -34 -19 -52 -8 -17 -14 -36 -14 -43 0 -7 -6 -26 -14 -43 -13
-29 -49 -135 -51 -147 0 -3 -3 -9 -6 -15 -6 -9 -32 -83 -34 -95 -2 -13 -27
-87 -36 -105 -9 -21 -127 -358 -133 -385 -3 -8 -25 -73 -51 -145 -26 -71 -48
-137 -50 -145 -2 -8 -27 -82 -55 -163 -27 -81 -53 -164 -56 -185 -3 -20 -9
-55 -14 -76 -10 -48 -5 -277 8 -328 6 -21 8 -38 5 -38 -3 0 -1 -6 4 -12 6 -7
16 -35 23 -63 8 -27 16 -52 19 -55 3 -3 22 -36 41 -74 40 -78 124 -170 191
-209 l46 -27 1370 0 c1286 0 1373 1 1434 18 69 19 136 60 197 120 46 46 102
117 102 130 0 5 6 15 14 21 12 10 109 194 111 211 1 3 11 27 23 54 12 27 22
50 22 51 0 1 8 20 17 41 9 22 18 42 19 47 1 4 2 8 4 10 1 1 3 11 5 22 2 10 8
28 13 40 15 31 32 78 37 103 3 12 7 30 9 40 19 78 22 103 20 144 -5 90 -54
142 -134 141 -25 0 -93 -3 -151 -7 -128 -8 -305 -14 -613 -21 -126 -2 -231 -7
-233 -9 -3 -3 -16 -1 -29 4 -13 5 -24 6 -24 2 0 -9 -458 -8 -487 2 -21 7 -22
9 -9 44 14 35 52 150 61 182 8 29 155 457 190 555 20 55 38 105 39 110 2 6 6
18 9 28 4 9 10 25 14 35 3 9 7 22 8 27 14 58 140 395 149 396 91 4 214 9 361
14 430 13 649 25 721 40 12 3 39 7 60 11 21 3 57 13 79 21 22 8 50 17 63 20
12 3 22 9 22 13 0 5 9 11 20 15 25 8 102 85 141 141 31 46 127 235 146 289 6
17 14 39 19 50 4 11 8 25 9 30 1 6 10 33 20 60 27 79 53 228 49 280 -10 110
-71 144 -289 160 -126 9 -278 16 -480 21 -115 2 -271 7 -345 10 -74 3 -145 5
-158 5 -19 -1 -22 3 -17 29 3 16 10 42 16 57 6 15 12 35 14 43 3 16 61 194 72
220 3 8 8 23 10 33 1 10 10 31 18 48 9 16 13 29 10 29 -3 0 1 14 10 30 9 17
13 30 9 30 -4 0 -1 6 5 13 6 8 8 17 4 20 -3 4 -1 7 6 7 7 0 10 4 6 9 -3 5 -1
12 5 16 5 3 10 15 10 26 0 10 4 27 10 37 5 9 21 49 36 89 24 64 30 72 58 77
80 15 206 24 441 31 613 18 659 21 780 54 41 11 123 58 154 89 28 27 81 99 81
109 0 5 9 15 20 23 11 8 20 22 20 31 0 10 3 19 8 21 13 6 84 130 159 276 l73
145 0 163 0 164 -1700 0 c-1352 0 -1702 -3 -1705 -12 -2 -7 -7 -35 -9 -63 -10
-90 -17 -140 -22 -155 -3 -8 -8 -26 -10 -40 -3 -14 -9 -36 -14 -50 -5 -14 -25
-79 -46 -145 -20 -66 -52 -167 -71 -225 -19 -58 -37 -112 -38 -120 -2 -8 -4
-16 -5 -17 -2 -2 -3 -6 -5 -10 -1 -5 -4 -15 -8 -23 -10 -27 -49 -150 -51 -163
-1 -7 -4 -16 -7 -22 -8 -12 -42 -115 -45 -133 -8 -46 -11 -8 -8 90 8 251 4
529 -11 623 -25 169 -89 270 -251 396 -32 25 -69 51 -81 57 -16 9 -471 12
-1772 12 l-1751 0 -1 -32z m1977 -1021 c4 -4 15 -7 25 -7 10 0 27 -13 38 -29
18 -25 20 -40 17 -127 -2 -55 -7 -110 -10 -124 -4 -14 -9 -40 -12 -59 -3 -18
-14 -66 -25 -105 -11 -39 -22 -80 -24 -91 -3 -11 -19 -63 -36 -115 -17 -52
-32 -99 -33 -105 -9 -32 -105 -282 -138 -355 -46 -101 -97 -200 -136 -258 -35
-54 -67 -77 -118 -86 -16 -3 -42 -8 -57 -12 -55 -12 -83 -14 -204 -18 l-123
-5 0 24 c0 34 39 164 139 457 49 145 110 326 136 403 25 77 53 154 60 170 7
17 17 44 21 60 4 17 9 35 13 40 3 6 6 12 6 15 0 6 23 66 41 107 8 17 14 33 14
36 0 3 13 34 29 69 55 117 69 124 263 123 59 0 110 -4 114 -8z"/>
</g>
</svg>
