<?xml version="1.0" encoding="UTF-8"?>
<svg width="147.25mm" height="37.259mm" version="1.1" viewBox="0 0 147.25224 37.259323" xmlns="http://www.w3.org/2000/svg" xmlns:cc="http://creativecommons.org/ns#" xmlns:dc="http://purl.org/dc/elements/1.1/" xmlns:rdf="http://www.w3.org/1999/02/22-rdf-syntax-ns#">
<metadata>
<rdf:RDF>
<cc:Work rdf:about="">
<dc:format>image/svg+xml</dc:format>
<dc:type rdf:resource="http://purl.org/dc/dcmitype/StillImage"/>
<dc:title/>
</cc:Work>
</rdf:RDF>
</metadata>
<path d="m86.89 8.0232e-5c-5.1426 0-5.0094-0.0321-4.9315 1.1906 0.0289 0.45317-2.6935 8.5519-9.0826 27.021-0.81177 2.3466-1.4732 4.5492-1.4702 4.8948 0.01016 1.0995 0.98092 2.8414 1.897 3.4039 0.79307 0.48699 1.2482 0.53069 4.8442 0.46819l3.9688-0.0687 0.03-1.0583c0.0165-0.58208 0.89171-3.5586 1.9446-6.6146s2.608-7.5803 3.4561-10.054c0.84811-2.4738 2.4416-7.0578 3.5414-10.186 2.1956-6.2463 2.3724-7.3324 1.3586-8.3463-0.64283-0.64243-0.69932-0.64957-5.5562-0.64957zm-50.619 5.3e-4 -0.0062 1.9182c-0.0034 1.055-0.55678 7.4546-1.2299 14.221-0.67312 6.7667-1.3329 13.434-1.4661 14.817-0.28212 2.9288-0.01294 4.4129 0.9679 5.3361 0.5857 0.5513 0.98489 0.63287 3.7445 0.76585 1.6988 0.0819 3.3502 0.17113 3.6695 0.19844 0.31931 0.0273 0.86706-0.21829 1.2175-0.54571 0.35044-0.32743 2.3516-3.6205 4.4468-7.3179 2.0964-3.6996 3.8484-6.5214 3.8964-6.2751 0.04799 0.24613-0.10084 2.1708-0.33073 4.2767-1.0153 9.3008-0.66781 9.8264 6.4017 9.693l2.4536-0.046 0.67128-1.1245c17.266-28.928 19.234-32.355 19.36-33.712 0.12129-1.3092 0.0924-1.3838-0.68524-1.7859-0.58165-0.30078-1.5585-0.41961-3.4489-0.41961-3.0542-1e-5 -3.4742 0.10946-3.4742 0.90537 0 0.53863-8.8404 15.406-9.6821 16.283-0.47033 0.48999-0.5026 1.0786 0.40566-7.4088 0.42766-3.9964 0.71087-7.5966 0.62942-8-0.28732-1.4232-1.1519-1.7797-4.3124-1.7797-2.3712-1e-5 -2.8982 0.0756-3.2303 0.46302-0.21825 0.25466-2.6315 4.1896-5.363 8.7447-2.7314 4.5551-5.018 8.2302-5.0813 8.1669-0.06333-0.0633 0.30712-3.262 0.82372-7.1081 0.51661-3.8461 0.93948-7.3814 0.93948-7.8564 0-0.60165-0.23475-1.0983-0.7736-1.6371l-0.77308-0.77307h-4.885zm-6.9453 0.0294c-1.3664 1e-3 -3.0782 0.0129-5.2167 0.0315-11.756 0.10271-11.928 0.13071-14.118 2.3208-2.1823 2.1823-3.9492 6.7138-3.976 10.197-0.02371 3.088 1.2494 4.7485 7.2171 9.4139 5.2251 4.0848 5.8987 5.1818 4.2137 6.8668l-0.77359 0.7736h-6.8466c-4.7467 0-6.9385-0.0919-7.1463-0.29973-0.61856-0.61856-1.118 0.0587-1.9094 2.5905-0.94614 3.0268-0.99708 3.8693-0.27802 4.5884 0.51123 0.51127 0.88183 0.52917 10.938 0.52917h10.409l1.6283-0.8139c2.7858-1.3921 4.6604-4.4063 5.6136-9.0258 1.1655-5.6484 0.9565-6.0912-5.3444-11.335-2.6708-2.2228-5.0614-4.2915-5.3129-4.5966-0.6925-0.84035-0.60341-2.4284 0.18035-3.2122 0.64744-0.64743 0.6659-0.64957 6.0937-0.64957 5.9144 0 6.7365-0.15193 7.7422-1.4304 0.69133-0.87888 2.2541-5.1472 2.065-5.64-0.08798-0.22928-1.0797-0.31278-5.179-0.30851zm112.54 0.0109c-1.4712-1e-3 -3.3372 7e-3 -5.702 0.0222l-10.921 0.0693-0.17467 1.3229c-0.096 0.7276-2.3407 7.5142-4.9883 15.081-2.6476 7.5671-4.9204 14.115-5.0509 14.551-0.61204 2.0442-0.0813 4.3561 1.2382 5.394 0.74104 0.58294 0.79861 0.58597 9.6351 0.50747 8.0424-0.0715 8.9594-0.12468 9.618-0.55656 0.90667-0.59455 1.567-1.6612 2.4433-3.9476 0.76844-2.005 0.75974-2.7745-0.0305-2.6112-0.28547 0.059-2.8113 0.15514-5.6126 0.21394-4.0811 0.0857-5.0902 0.0384-5.0782-0.23926 8e-3 -0.19055 0.7658-2.4899 1.6836-5.1092l1.6692-4.7625 4.0706-0.13229c4.5594-0.14816 5.0076-0.30139 5.98-2.0479 0.77683-1.3954 1.3932-3.6179 1.124-4.0535-0.16811-0.27201-1.2457-0.38417-4.4054-0.45837-2.3006-0.054-4.2116-0.12653-4.2462-0.16123-0.10766-0.10766 1.8414-5.8285 2.0965-6.1536 0.1585-0.202 1.6346-0.33797 4.3103-0.39687 3.579-0.0789 4.1593-0.15426 4.8157-0.62581 0.8624-0.61952 3.1249-4.9628 2.896-5.5593-0.098-0.25529-0.95666-0.34332-5.3702-0.34623zm-44.405 0.0915-0.0786 0.79375c-0.0996 1.0043-1.2282 4.4638-6.3433 19.447-2.593 7.5954-4.1104 12.429-4.1124 13.097-3e-3 1.3295 0.66704 2.6459 1.6082 3.161v5.3e-4c0.57269 0.31354 1.61 0.38415 4.9573 0.33745l4.2333-0.0594-0.0827-1.0599c-0.0607-0.7793 0.38646-2.3914 1.6878-6.0854 0.97365-2.7639 1.8888-5.1744 2.0335-5.3563 0.18713-0.23533 1.3027-0.3318 3.8685-0.3328 6.4484-4e-3 8.6985-0.69676 11.268-3.4716 1.796-1.9399 2.6642-3.6075 4.2783-8.2186 1.1816-3.3759 1.2338-3.6486 1.2609-6.6084 0.0308-3.3668-0.14599-3.8678-1.7937-5.0984-0.71041-0.53051-1.0327-0.5457-11.757-0.5457zm11.901 6.2513c1.2732 0.0128 1.725 0.42891 1.725 1.4805 0 2.2261-2.3396 8.4806-3.3807 9.0377-0.65223 0.34876-2.7348 0.55992-3.4138 0.34572-0.5693-0.17961-0.55643-0.24184 0.98341-4.7578 2.1287-6.2431 1.9842-5.9905 3.4892-6.0875 0.21648-0.014 0.41498-0.0204 0.59686-0.0186z" 
fill="#0033a0" stroke="white" stroke-width="1"/>
</svg>